<svg xmlns="http://www.w3.org/2000/svg" viewBox="0 0 800 520" font-family="system-ui, -apple-system, sans-serif">
  <defs>
    <marker id="arrow" viewBox="0 0 10 10" refX="10" refY="5" markerWidth="8" markerHeight="8" orient="auto-start-reverse">
      <path d="M 0 0 L 10 5 L 0 10 z" fill="#64748b"/>
    </marker>
    <linearGradient id="inputGrad" x1="0" y1="0" x2="1" y2="1">
      <stop offset="0%" stop-color="#dbeafe"/>
      <stop offset="100%" stop-color="#bfdbfe"/>
    </linearGradient>
    <linearGradient id="qwenGrad" x1="0" y1="0" x2="1" y2="1">
      <stop offset="0%" stop-color="#fef3c7"/>
      <stop offset="100%" stop-color="#fde68a"/>
    </linearGradient>
    <linearGradient id="procGrad" x1="0" y1="0" x2="1" y2="1">
      <stop offset="0%" stop-color="#e0e7ff"/>
      <stop offset="100%" stop-color="#c7d2fe"/>
    </linearGradient>
    <linearGradient id="piperGrad" x1="0" y1="0" x2="1" y2="1">
      <stop offset="0%" stop-color="#d1fae5"/>
      <stop offset="100%" stop-color="#a7f3d0"/>
    </linearGradient>
    <linearGradient id="outputGrad" x1="0" y1="0" x2="1" y2="1">
      <stop offset="0%" stop-color="#ede9fe"/>
      <stop offset="100%" stop-color="#ddd6fe"/>
    </linearGradient>
  </defs>

  <!-- Background -->
  <rect width="800" height="520" rx="12" fill="#f8fafc"/>

  <!-- Step 1: Reference Audio -->
  <rect x="40" y="30" width="220" height="70" rx="10" fill="url(#inputGrad)" stroke="#93c5fd" stroke-width="1.5"/>
  <text x="150" y="58" text-anchor="middle" font-size="14" font-weight="600" fill="#1e3a5f">Reference Audio</text>
  <text x="150" y="78" text-anchor="middle" font-size="11" fill="#475569">3-5s voice sample</text>

  <!-- Arrow 1 -->
  <line x1="260" y1="65" x2="300" y2="65" stroke="#64748b" stroke-width="1.5" marker-end="url(#arrow)"/>

  <!-- Step 2: Qwen3-TTS Feature Extraction -->
  <rect x="300" y="30" width="220" height="70" rx="10" fill="url(#qwenGrad)" stroke="#fbbf24" stroke-width="1.5"/>
  <text x="410" y="58" text-anchor="middle" font-size="14" font-weight="600" fill="#78350f">Qwen3-TTS</text>
  <text x="410" y="78" text-anchor="middle" font-size="11" fill="#475569">Extract voice features</text>

  <!-- Arrow 2 (down) -->
  <line x1="410" y1="100" x2="410" y2="140" stroke="#64748b" stroke-width="1.5" marker-end="url(#arrow)"/>

  <!-- Text Dataset (side input) -->
  <rect x="580" y="140" width="180" height="70" rx="10" fill="url(#inputGrad)" stroke="#93c5fd" stroke-width="1.5"/>
  <text x="670" y="168" text-anchor="middle" font-size="14" font-weight="600" fill="#1e3a5f">Text Dataset</text>
  <text x="670" y="188" text-anchor="middle" font-size="11" fill="#475569">LJ Speech transcripts</text>

  <!-- Arrow from text dataset -->
  <line x1="580" y1="175" x2="540" y2="175" stroke="#64748b" stroke-width="1.5" marker-end="url(#arrow)"/>

  <!-- Step 3: Qwen3-TTS Synthesis -->
  <rect x="300" y="140" width="240" height="70" rx="10" fill="url(#qwenGrad)" stroke="#fbbf24" stroke-width="1.5"/>
  <text x="420" y="168" text-anchor="middle" font-size="14" font-weight="600" fill="#78350f">Qwen3-TTS Synthesis</text>
  <text x="420" y="188" text-anchor="middle" font-size="11" fill="#475569">Generate ~1000 WAV samples</text>

  <!-- Arrow 3 (down) -->
  <line x1="420" y1="210" x2="420" y2="250" stroke="#64748b" stroke-width="1.5" marker-end="url(#arrow)"/>

  <!-- Step 4: Audio Normalization -->
  <rect x="300" y="250" width="240" height="70" rx="10" fill="url(#procGrad)" stroke="#818cf8" stroke-width="1.5"/>
  <text x="420" y="275" text-anchor="middle" font-size="14" font-weight="600" fill="#312e81">Normalize + Resample</text>
  <text x="420" y="295" text-anchor="middle" font-size="11" fill="#475569">Peak normalize to 0.95, 22050Hz PCM16</text>

  <!-- Arrow 4 (down) -->
  <line x1="420" y1="320" x2="420" y2="360" stroke="#64748b" stroke-width="1.5" marker-end="url(#arrow)"/>

  <!-- Pretrained Checkpoint (side input) -->
  <rect x="580" y="360" width="180" height="70" rx="10" fill="url(#piperGrad)" stroke="#6ee7b7" stroke-width="1.5"/>
  <text x="670" y="385" text-anchor="middle" font-size="14" font-weight="600" fill="#064e3b">Pretrained Model</text>
  <text x="670" y="405" text-anchor="middle" font-size="11" fill="#475569">piper-checkpoints (HF)</text>

  <!-- Arrow from pretrained -->
  <line x1="580" y1="395" x2="540" y2="395" stroke="#64748b" stroke-width="1.5" marker-end="url(#arrow)"/>

  <!-- Step 5: Piper Fine-tune -->
  <rect x="300" y="360" width="240" height="70" rx="10" fill="url(#piperGrad)" stroke="#6ee7b7" stroke-width="1.5"/>
  <text x="420" y="385" text-anchor="middle" font-size="14" font-weight="600" fill="#064e3b">Piper VITS Fine-tune</text>
  <text x="420" y="405" text-anchor="middle" font-size="11" fill="#475569">Train on cloned audio</text>

  <!-- Arrow 5 (down-left) -->
  <line x1="420" y1="430" x2="420" y2="460" stroke="#64748b" stroke-width="1.5" marker-end="url(#arrow)"/>

  <!-- Step 6: ONNX Output -->
  <rect x="300" y="460" width="240" height="50" rx="10" fill="url(#outputGrad)" stroke="#a78bfa" stroke-width="1.5"/>
  <text x="420" y="490" text-anchor="middle" font-size="14" font-weight="700" fill="#4c1d95">ONNX Model -- deploy anywhere</text>

  <!-- Phase labels -->
  <text x="55" y="168" font-size="10" fill="#94a3b8" font-weight="500" transform="rotate(-90, 55, 168)">QWEN3-TTS</text>
  <text x="55" y="395" font-size="10" fill="#94a3b8" font-weight="500" transform="rotate(-90, 55, 395)">PIPER</text>

  <!-- Dashed divider between phases -->
  <line x1="30" y1="235" x2="770" y2="235" stroke="#cbd5e1" stroke-width="1" stroke-dasharray="6,4"/>
</svg>
